<svg xmlns="http://www.w3.org/2000/svg" viewBox="0 0 512 512" width="512" height="512">
  <!-- White Background with soft rounded corners -->
  <rect width="512" height="512" fill="#ffffff" rx="128" />
  
  <!-- Logo.svg path scaled up and centered in orange -->
  <g fill="#f14f29" transform="translate(76, 76) scale(15)">
    <path d="M6,3c4,0,7.9,0,12,0c0,0.7,0,1.3,0,2c1,0,2,0,3,0c0,5.3,0,10.6,0,16c-1,0-2,0-3,0c0,0.7,0,1.3,0,2
	c-0.7,0-1.3,0-2,0c0-0.7,0-1.3,0-2c-2.6,0-5.3,0-8,0c0,0.7,0,1.3,0,2c-0.7,0-1.3,0-2,0c0-0.7,0-1.3,0-2c-1,0-2,0-3,0
	c0-5.3,0-10.6,0-16c1,0,2,0,3,0C6,4.3,6,3.7,6,3z M5,9c0,1.6,0,3.3,0,5c4.6,0,9.2,0,14,0c0-1.6,0-3.3,0-5C14.4,9,9.8,9,5,9z"/>
  </g>
</svg>
