<svg xmlns="http://www.w3.org/2000/svg" viewBox="0 0 512 512" width="512" height="512">
  <!-- White Background with soft rounded corners -->
  <rect width="512" height="512" fill="#ffffff" rx="128" />
  
  <!-- Subtle orange shaded circle behind the train -->
  <circle cx="256" cy="256" r="200" fill="#fff7ed" />
  
  <!-- Outer orange ring for the theme -->
  <circle cx="256" cy="256" r="200" fill="none" stroke="#f14f29" stroke-width="8" opacity="0.3" />
  
  <!-- Train Icon Centered -->
  <g transform="translate(112, 104) scale(0.6)">
    <path d="M240 16c-70.7 0-128 57.3-128 128V368c0 44.2 35.8 80 80 80h16v32c0 17.7 14.3 32 32 32h32c17.7 0 32-14.3 32-32v-32h80v32c0 17.7 14.3 32 32 32h32c17.7 0 32-14.3 32-32v-32h16c44.2 0 80-35.8 80-80V144C496 73.3 438.7 16 368 16H240zM192 144h224c17.7 0 32 14.3 32 32v96c0 17.7-14.3 32-32 32H192c-17.7 0-32-14.3-32-32v-96c0-17.7 14.3-32 32-32zm32 208a48 48 0 1 1 0 96 48 48 0 1 1 0-96zm160 48a48 48 0 1 1 96 0 48 48 0 1 1 -96 0z" fill="#f14f29"/>
  </g>
</svg>
