<?xml version="1.0" encoding="utf-8"?>
<!-- Generator: Adobe Illustrator 24.3.0, SVG Export Plug-In . SVG Version: 6.00 Build 0)  -->
<svg version="1.1" id="Layer_1" xmlns="http://www.w3.org/2000/svg" xmlns:xlink="http://www.w3.org/1999/xlink" x="0px" y="0px"
	 viewBox="0 0 24 24" style="enable-background:new 0 0 24 24;" xml:space="preserve">
<style type="text/css">
	.st0{fill:#f14f29;}
</style>
<path class="st0" d="M6,3c4,0,7.9,0,12,0c0,0.7,0,1.3,0,2c1,0,2,0,3,0c0,5.3,0,10.6,0,16c-1,0-2,0-3,0c0,0.7,0,1.3,0,2
	c-0.7,0-1.3,0-2,0c0-0.7,0-1.3,0-2c-2.6,0-5.3,0-8,0c0,0.7,0,1.3,0,2c-0.7,0-1.3,0-2,0c0-0.7,0-1.3,0-2c-1,0-2,0-3,0
	c0-5.3,0-10.6,0-16c1,0,2,0,3,0C6,4.3,6,3.7,6,3z M5,9c0,1.6,0,3.3,0,5c4.6,0,9.2,0,14,0c0-1.6,0-3.3,0-5C14.4,9,9.8,9,5,9z"/>
</svg>
